<svg width="24" height="24" viewBox="0 0 24 24" fill="none" xmlns="http://www.w3.org/2000/svg">
<path d="M19.6625 2.66111C19.4906 2.41419 19.2591 2.23363 18.9685 2.11908C18.7834 2.03986 18.5895 2.00019 18.3867 2.00019V2H4.5333C4.33064 2 4.13688 2.03968 3.95178 2.1189C3.66102 2.23335 3.42961 2.41415 3.25779 2.66092C3.08602 2.9077 3 3.18077 3 3.48047V20.5195C3 20.8193 3.08602 21.0923 3.25779 21.3393C3.42961 21.586 3.66102 21.7668 3.95178 21.8812C4.1367 21.9604 4.33064 22 4.5333 22C4.94763 22 5.31316 21.8545 5.6305 21.564L11.4601 15.9589L17.2896 21.5641C17.5981 21.8456 17.9638 21.9867 18.3867 21.9867C18.6071 21.9867 18.801 21.9517 18.9684 21.8811C19.259 21.7667 19.4905 21.586 19.6624 21.3389C19.8342 21.0923 19.92 20.8192 19.92 20.5195V3.48065C19.9201 3.18096 19.834 2.90788 19.6625 2.66111ZM18.2281 20.1095L12.6366 14.7427L11.4601 13.6193L10.2836 14.7427L4.69215 20.1095V3.6922H18.2281V20.1095Z" fill="black"/>
</svg>
