<svg width="26" height="24" viewBox="0 0 26 24" fill="none" xmlns="http://www.w3.org/2000/svg">
<path d="M24.2702 0H1.89118C0.996653 0 0 0.708706 0 1.72549V16.7843C0 17.8011 0.996653 18.5098 1.89118 18.5098H5.04315V22.902C5.04315 23.3462 5.31202 23.7462 5.72429 23.9159C5.86077 23.9727 6.00419 24 6.14603 24C6.43317 24 6.71527 23.8886 6.92645 23.6784L12.1193 18.5098H24.2702C25.0292 18.5098 25.8462 17.9699 25.8462 16.7843V1.72549C25.8462 0.539922 25.0292 0 24.2702 0ZM23.6391 16.3137H11.6623C11.3698 16.3137 11.0893 16.4295 10.8822 16.6353L7.24953 20.251V17.4118C7.24953 16.805 6.75562 16.3137 6.14634 16.3137H2.20638V2.19608H23.6398L23.6391 16.3137ZM6.30394 7.84314H19.5422C20.1518 7.84314 20.6454 7.35153 20.6454 6.7451C20.6454 6.13867 20.1518 5.64706 19.5422 5.64706H6.30394C5.69466 5.64706 5.20075 6.13867 5.20075 6.7451C5.20075 7.35153 5.69466 7.84314 6.30394 7.84314ZM6.30394 12.2353H12.9231C13.5327 12.2353 14.0263 11.7437 14.0263 11.1373C14.0263 10.5308 13.5327 10.0392 12.9231 10.0392H6.30394C5.69466 10.0392 5.20075 10.5308 5.20075 11.1373C5.20075 11.7437 5.69466 12.2353 6.30394 12.2353Z" fill="white"/>
</svg>
