<svg width="24" height="24" viewBox="0 0 24 24" fill="none" xmlns="http://www.w3.org/2000/svg">
<path d="M20.896 2H3.10303C2.49377 2.00037 1.99988 2.49451 2 3.104V20.897C2.00037 21.5062 2.49451 22.0001 3.104 22H12.6836V14.2656H10.0859V11.2383H12.6836V9.01038C12.6836 6.42676 14.2609 5.02051 16.5656 5.02051C17.6694 5.02051 18.618 5.10278 18.8945 5.13953V7.83984H17.3053C16.0514 7.83984 15.8086 8.43567 15.8086 9.31018V11.2383H18.8066L18.416 14.2656H15.8086V22H20.896C21.5056 22.0001 21.9999 21.5061 22 20.8965C22 20.8964 22 20.8962 22 20.896V3.10303C21.9998 2.49377 21.5055 1.99988 20.896 2Z" fill="black"/>
</svg>
