<svg width="23" height="23" viewBox="0 0 23 23" fill="none" xmlns="http://www.w3.org/2000/svg">
<path d="M1.56822 20.4709H5.22729V11.5845L0 7.66406V18.9028C0 19.7692 0.70177 20.471 1.56822 20.471V20.4709Z" fill="#4285F4"/>
<path d="M17.7725 20.4709H21.4316C22.298 20.4709 22.9998 19.7691 22.9998 18.9027V7.66406L17.7725 11.5845V20.4709Z" fill="#34A853"/>
<path d="M17.7725 4.78919V11.5847L22.9998 7.66419V5.5733C22.9998 3.63528 20.7873 2.52841 19.2361 3.69148L17.7725 4.78919Z" fill="#FBBC04"/>
<path fill-rule="evenodd" clip-rule="evenodd" d="M5.22754 11.5845V4.78906L11.5003 9.49364L17.773 4.78906V11.5845L11.5003 16.2891L5.22754 11.5845Z" fill="#EA4335"/>
<path d="M0 5.5733V7.66419L5.22729 11.5847V4.78919L3.76364 3.69148C2.2124 2.52841 0 3.63528 0 5.57321V5.5733Z" fill="#C5221F"/>
</svg>
