<svg width="40" height="40" viewBox="0 0 40 40" fill="none" xmlns="http://www.w3.org/2000/svg">
<circle cx="20" cy="20" r="19.5" fill="#EEEFEF" stroke="#38B6FF"/>
<path d="M19.815 10.6519C14.7628 10.6519 10.6523 14.7624 10.6523 19.8145C10.6523 24.8667 14.7628 28.9772 19.815 28.9772C24.8598 28.9772 28.9634 24.8667 28.9634 19.8145C28.9634 14.7624 24.8598 10.6519 19.815 10.6519ZM19.815 27.9907C15.3069 27.9907 11.6389 24.3226 11.6389 19.8145C11.6389 15.3064 15.3069 11.6384 19.815 11.6384C24.3157 11.6384 27.9768 15.3064 27.9768 19.8145C27.9768 24.3226 24.3157 27.9907 19.815 27.9907Z" fill="black"/>
<path d="M20.3088 6H19.3223V8.54434H20.3088V6Z" fill="black"/>
<path d="M27.4372 11.4958L28.1348 12.1934L29.9248 10.4033L29.2272 9.70573L27.4372 11.4958Z" fill="black"/>
<path d="M33.617 19.3213H31.0859V20.3078H33.617V19.3213Z" fill="black"/>
<path d="M27.4365 28.1311L29.2266 29.9214L29.9243 29.2238L28.1342 27.4335L27.4365 28.1311Z" fill="black"/>
<path d="M20.3088 31.085H19.3223V33.6293H20.3088V31.085Z" fill="black"/>
<path d="M9.69374 29.2245L10.3887 29.9248L12.1925 28.1347L11.4976 27.4344L9.69374 29.2245Z" fill="black"/>
<path d="M8.54483 19.3213H6V20.3078H8.54483V19.3213Z" fill="black"/>
<path d="M12.1925 11.4942L10.3887 9.7041L9.69374 10.4044L11.4976 12.1945L12.1925 11.4942Z" fill="black"/>
</svg>
