<svg width="24" height="24" viewBox="0 0 24 24" fill="none" xmlns="http://www.w3.org/2000/svg">
<path d="M20.5576 2H3.44241C2.64575 2 2 2.64575 2 3.44241V20.5576C2 21.3542 2.64575 22 3.44241 22H20.5576C21.3542 22 22 21.3542 22 20.5576V3.44241C22 2.64575 21.3542 2 20.5576 2V2ZM9.09412 17.1172H6.65866V9.79007H9.09412V17.1172ZM7.87646 8.78955H7.8606C7.04333 8.78955 6.51477 8.22696 6.51477 7.52383C6.51477 6.80484 7.05951 6.25781 7.89264 6.25781C8.72577 6.25781 9.23846 6.80484 9.25433 7.52383C9.25433 8.22696 8.72577 8.78955 7.87646 8.78955ZM17.8759 17.1172H15.4407V13.1974C15.4407 12.2122 15.0881 11.5404 14.2069 11.5404C13.5341 11.5404 13.1334 11.9936 12.9573 12.4311C12.8929 12.5876 12.8772 12.8064 12.8772 13.0254V17.1172H10.4419C10.4419 17.1172 10.4738 10.4775 10.4419 9.79007H12.8772V10.8275C13.2009 10.3282 13.7799 9.6181 15.0721 9.6181C16.6744 9.6181 17.8759 10.6653 17.8759 12.9158V17.1172Z" fill="black"/>
</svg>
