<svg width="24" height="24" viewBox="0 0 24 24" fill="none" xmlns="http://www.w3.org/2000/svg">
<path d="M19.1891 9C17.6368 8.99982 16.3783 10.2584 16.3783 11.8109C16.3783 13.3632 17.6368 14.6217 19.1891 14.6217C20.7416 14.6217 22 13.3632 22 11.8109C21.9982 10.2591 20.7409 9.00176 19.1891 9ZM19.1891 13.5011C18.2558 13.5011 17.4989 12.7442 17.4989 11.8109C17.4989 10.8775 18.2558 10.1208 19.1891 10.1208C20.1225 10.1208 20.8792 10.8773 20.8792 11.8109C20.8782 12.7439 20.122 13.4996 19.1891 13.5011Z" fill="white"/>
<path d="M12.0002 9C10.4477 9 9.18909 10.2584 9.18909 11.8109C9.18909 13.3632 10.4477 14.6217 12.0002 14.6217C13.5525 14.6217 14.8109 13.3632 14.8109 11.8109C14.8109 10.2584 13.5525 9 12.0002 9ZM12.0002 13.5011C11.0665 13.5011 10.3097 12.7442 10.3097 11.8109C10.3097 10.8773 11.0665 10.1208 12.0002 10.1208C12.9335 10.1208 13.6901 10.8773 13.6901 11.8109C13.6901 12.7442 12.9335 13.5011 12.0002 13.5011Z" fill="white"/>
<path d="M4.81092 9C3.25843 9 2 10.2584 2 11.8109C2 13.3632 3.25843 14.6217 4.81092 14.6217C6.36324 14.6217 7.62166 13.3632 7.62166 11.8109C7.61991 10.2591 6.36253 9.00176 4.81092 9ZM4.81092 13.5011C3.87746 13.5011 3.12079 12.7442 3.12079 11.8109C3.12079 10.8773 3.87746 10.1208 4.81092 10.1208C5.74438 10.1208 6.50088 10.8773 6.50088 11.8109C6.50088 12.7442 5.74421 13.5011 4.81092 13.5011Z" fill="white"/>
</svg>
