<svg width="41" height="41" viewBox="0 0 41 41" fill="none" xmlns="http://www.w3.org/2000/svg">
<circle cx="20.5" cy="20.5" r="20.5" fill="#A0DCFF"/>
<path d="M22.8748 13.0449C21.5173 13.0449 20.4046 14.1642 20.4046 15.5298C20.4046 15.7945 20.4461 16.0545 20.5233 16.2943L16.4439 18.5761C16.0188 18.2289 15.4803 18.0146 14.8941 18.0146C13.5365 18.0146 12.4238 19.1339 12.4238 20.4995C12.4238 21.865 13.5365 22.9843 14.8941 22.9843C15.4803 22.9843 16.0188 22.776 16.4439 22.4288L20.5293 24.7106C20.4516 24.951 20.4046 25.2037 20.4046 25.4692C20.4046 26.8347 21.5173 27.954 22.8748 27.954C24.2323 27.954 25.345 26.8347 25.345 25.4692C25.345 24.1036 24.2323 22.9843 22.8748 22.9843C22.193 22.9843 21.5714 23.2709 21.1231 23.725L17.1505 21.503C17.2862 21.1961 17.3643 20.8552 17.3643 20.4995C17.3643 20.1417 17.2876 19.8042 17.1505 19.496L21.1171 17.2739C21.5659 17.7315 22.19 18.0146 22.8748 18.0146C24.2323 18.0146 25.345 16.8953 25.345 15.5298C25.345 14.1642 24.2323 13.0449 22.8748 13.0449ZM22.8748 14.1918C23.6162 14.1918 24.2049 14.784 24.2049 15.5298C24.2049 16.2755 23.6162 16.8678 22.8748 16.8678C22.1335 16.8678 21.5447 16.2755 21.5447 15.5298C21.5447 14.784 22.1335 14.1918 22.8748 14.1918ZM14.8941 19.1615C15.6354 19.1615 16.2242 19.7537 16.2242 20.4995C16.2242 21.2452 15.6354 21.8375 14.8941 21.8375C14.1527 21.8375 13.5639 21.2452 13.5639 20.4995C13.5639 19.7537 14.1527 19.1615 14.8941 19.1615ZM22.8748 24.1312C23.6162 24.1312 24.2049 24.7234 24.2049 25.4692C24.2049 26.2149 23.6162 26.8072 22.8748 26.8072C22.1335 26.8072 21.5447 26.2149 21.5447 25.4692C21.5447 24.7234 22.1335 24.1312 22.8748 24.1312Z" fill="black"/>
</svg>
