<svg width="23" height="21" viewBox="0 0 23 21" fill="none" xmlns="http://www.w3.org/2000/svg">
<path d="M6.34917 18.9563L0.667004 20.0833L1.92995 15.0128C1.09822 13.6245 0.664348 12.0742 0.667004 10.5C0.667004 5.20709 5.47499 0.916626 11.4063 0.916626C17.3376 0.916626 22.1456 5.20709 22.1456 10.5C22.1456 15.7928 17.3376 20.0833 11.4063 20.0833C9.64223 20.0857 7.90489 19.6985 6.34917 18.9563ZM6.66061 16.9313L7.36189 17.2668C8.60609 17.8601 9.99559 18.1693 11.4063 18.1666C13.1055 18.1666 14.7666 17.717 16.1795 16.8746C17.5923 16.0321 18.6935 14.8348 19.3438 13.4339C19.994 12.033 20.1642 10.4915 19.8327 9.00427C19.5012 7.51708 18.6829 6.15101 17.4814 5.07881C16.2799 4.00661 14.749 3.27643 13.0824 2.98061C11.4158 2.68479 9.68839 2.83661 8.11851 3.41688C6.54863 3.99716 5.20683 4.97981 4.26279 6.24059C3.31875 7.50137 2.81487 8.98364 2.81487 10.5C2.81487 11.7784 3.16389 13.0089 3.82436 14.109L4.19916 14.7348L3.49574 17.559L6.66061 16.9313Z" fill="#185F7D"/>
</svg>
