<svg width="22" height="21" viewBox="0 0 22 21" fill="none" xmlns="http://www.w3.org/2000/svg">
<path d="M12.8701 15.3137L8.36063 13.1191C7.7719 13.6807 7.00746 14.0714 6.16667 14.2402C5.32588 14.4091 4.4476 14.3484 3.64599 14.066C2.84438 13.7836 2.15649 13.2925 1.67173 12.6566C1.18696 12.0208 0.927734 11.2695 0.927734 10.5004C0.927734 9.73139 1.18696 8.98011 1.67173 8.34425C2.15649 7.70839 2.84438 7.21735 3.64599 6.93493C4.4476 6.65252 5.32588 6.5918 6.16667 6.76066C7.00746 6.92952 7.7719 7.32016 8.36063 7.8818L12.8711 5.68722C12.6151 4.78263 12.7375 3.82574 13.2155 2.99594C13.6935 2.16613 14.4942 1.52037 15.4675 1.1797C16.4409 0.839034 17.5201 0.826847 18.5028 1.14542C19.4855 1.464 20.3043 2.09147 20.8057 2.91022C21.307 3.72897 21.4566 4.68278 21.2262 5.59287C20.9959 6.50296 20.4015 7.30684 19.5545 7.85383C18.7074 8.40082 17.6659 8.65337 16.6252 8.56413C15.5844 8.4749 14.6159 8.05 13.901 7.3691L9.39053 9.56368C9.56365 10.1783 9.56365 10.8216 9.39053 11.4363L13.9 13.6308C14.6148 12.9499 15.5833 12.525 16.6241 12.4358C17.6649 12.3466 18.7064 12.5991 19.5534 13.1461C20.4004 13.6931 20.9948 14.497 21.2251 15.4071C21.4555 16.3172 21.306 17.271 20.8046 18.0897C20.3032 18.9085 19.4845 19.5359 18.5017 19.8545C17.519 20.1731 16.4398 20.1609 15.4665 19.8202C14.4931 19.4796 13.6924 18.8338 13.2144 18.004C12.7364 17.1742 12.614 16.2173 12.8701 15.3127V15.3137ZM5.22368 12.4166C5.79333 12.4166 6.33964 12.2147 6.74245 11.8553C7.14525 11.4958 7.37154 11.0083 7.37154 10.5C7.37154 9.99164 7.14525 9.50413 6.74245 9.14468C6.33964 8.78524 5.79333 8.5833 5.22368 8.5833C4.65403 8.5833 4.10771 8.78524 3.70491 9.14468C3.30211 9.50413 3.07582 9.99164 3.07582 10.5C3.07582 11.0083 3.30211 11.4958 3.70491 11.8553C4.10771 12.2147 4.65403 12.4166 5.22368 12.4166ZM17.0369 6.66664C17.6066 6.66664 18.1529 6.4647 18.5557 6.10526C18.9585 5.74581 19.1848 5.2583 19.1848 4.74997C19.1848 4.24164 18.9585 3.75413 18.5557 3.39468C18.1529 3.03524 17.6066 2.8333 17.0369 2.8333C16.4673 2.8333 15.921 3.03524 15.5182 3.39468C15.1153 3.75413 14.8891 4.24164 14.8891 4.74997C14.8891 5.2583 15.1153 5.74581 15.5182 6.10526C15.921 6.4647 16.4673 6.66664 17.0369 6.66664ZM17.0369 18.1666C17.6066 18.1666 18.1529 17.9647 18.5557 17.6053C18.9585 17.2458 19.1848 16.7583 19.1848 16.25C19.1848 15.7416 18.9585 15.2541 18.5557 14.8947C18.1529 14.5352 17.6066 14.3333 17.0369 14.3333C16.4673 14.3333 15.921 14.5352 15.5182 14.8947C15.1153 15.2541 14.8891 15.7416 14.8891 16.25C14.8891 16.7583 15.1153 17.2458 15.5182 17.6053C15.921 17.9647 16.4673 18.1666 17.0369 18.1666Z" fill="#185F7D"/>
</svg>
