<svg width="24" height="19" viewBox="0 0 24 19" fill="none" xmlns="http://www.w3.org/2000/svg">
<path d="M11.8659 0.875C17.6566 0.875 22.4742 4.59333 23.4848 9.5C22.4753 14.4067 17.6566 18.125 11.8659 18.125C6.0753 18.125 1.25764 14.4067 0.24707 9.5C1.25657 4.59333 6.0753 0.875 11.8659 0.875ZM11.8659 16.2083C14.0562 16.2079 16.1814 15.544 17.8938 14.3254C19.6061 13.1067 20.8042 11.4054 21.2918 9.5C20.8024 7.59608 19.6035 5.89667 17.8914 4.67961C16.1792 3.46255 14.0549 2.79984 11.8659 2.79984C9.67694 2.79984 7.55269 3.46255 5.84051 4.67961C4.12833 5.89667 2.9295 7.59608 2.44004 9.5C2.92771 11.4054 4.12576 13.1067 5.83811 14.3254C7.55047 15.544 9.67569 16.2079 11.8659 16.2083ZM11.8659 13.8125C10.5842 13.8125 9.35501 13.3581 8.44871 12.5494C7.5424 11.7406 7.03324 10.6437 7.03324 9.5C7.03324 8.35625 7.5424 7.25935 8.44871 6.4506C9.35501 5.64185 10.5842 5.1875 11.8659 5.1875C13.1476 5.1875 14.3769 5.64185 15.2832 6.4506C16.1895 7.25935 16.6986 8.35625 16.6986 9.5C16.6986 10.6437 16.1895 11.7406 15.2832 12.5494C14.3769 13.3581 13.1476 13.8125 11.8659 13.8125ZM11.8659 11.8958C12.578 11.8958 13.2609 11.6434 13.7644 11.1941C14.2679 10.7448 14.5508 10.1354 14.5508 9.5C14.5508 8.86459 14.2679 8.2552 13.7644 7.80589C13.2609 7.35658 12.578 7.10417 11.8659 7.10417C11.1539 7.10417 10.471 7.35658 9.96748 7.80589C9.46397 8.2552 9.18111 8.86459 9.18111 9.5C9.18111 10.1354 9.46397 10.7448 9.96748 11.1941C10.471 11.6434 11.1539 11.8958 11.8659 11.8958Z" fill="#185F7D"/>
</svg>
