<svg width="17" height="20" viewBox="0 0 17 20" fill="none" xmlns="http://www.w3.org/2000/svg">
<path d="M16.6625 0.661109C16.4906 0.414194 16.2591 0.233627 15.9685 0.119082C15.7834 0.0398638 15.5895 0.000185198 15.3867 0.000185198V0H1.5333C1.33064 0 1.13688 0.0396786 0.951777 0.118897C0.661017 0.233349 0.429612 0.414148 0.257795 0.660924C0.0860242 0.9077 0 1.18077 0 1.48047V18.5195C0 18.8193 0.0860242 19.0923 0.257795 19.3393C0.429612 19.586 0.661017 19.7668 0.951777 19.8812C1.1367 19.9604 1.33064 20 1.5333 20C1.94763 20 2.31316 19.8545 2.6305 19.564L8.46006 13.9589L14.2896 19.5641C14.5981 19.8456 14.9638 19.9867 15.3867 19.9867C15.6071 19.9867 15.801 19.9517 15.9684 19.8811C16.259 19.7667 16.4905 19.586 16.6624 19.3389C16.8342 19.0923 16.92 18.8192 16.92 18.5195V1.48065C16.9201 1.18096 16.834 0.907885 16.6625 0.661109ZM15.2281 18.1095L9.63657 12.7427L8.46006 11.6193L7.28364 12.7427L1.69215 18.1095V1.6922H15.2281V18.1095Z" fill="white"/>
</svg>
