<svg width="14" height="14" viewBox="0 0 14 14" fill="none" xmlns="http://www.w3.org/2000/svg">
<path d="M1.09323 13.1349C1.01522 13.1353 0.937917 13.1201 0.865866 13.0902C0.793815 13.0603 0.728462 13.0163 0.673644 12.9608C0.562454 12.8494 0.5 12.6985 0.5 12.5412C0.5 12.3838 0.562454 12.2329 0.673644 12.1216L11.757 1.03826C11.8695 0.933381 12.0184 0.876285 12.1722 0.878999C12.326 0.881713 12.4728 0.944026 12.5816 1.05281C12.6904 1.1616 12.7527 1.30836 12.7554 1.46218C12.7581 1.616 12.701 1.76487 12.5961 1.87743L1.51281 12.9608C1.45799 13.0163 1.39264 13.0603 1.32059 13.0902C1.24854 13.1201 1.17124 13.1353 1.09323 13.1349Z" fill="black"/>
<path fill-rule="evenodd" clip-rule="evenodd" d="M12.1016 1.40074L1.02742 12.4749C1.02738 12.475 1.02746 12.4749 1.02742 12.4749C1.00994 12.4925 1 12.5164 1 12.5412C1 12.566 1.00986 12.5899 1.02742 12.6074L1.0294 12.6094C1.03742 12.6175 1.047 12.624 1.05755 12.6284C1.06811 12.6328 1.07944 12.635 1.09087 12.6349L1.09323 13.1349L1.09559 12.6349C1.10702 12.635 1.11834 12.6328 1.1289 12.6284C1.13946 12.624 1.14903 12.6175 1.15706 12.6094L1.15925 12.6072L12.2337 1.5328C12.2481 1.51555 12.2559 1.49361 12.2555 1.471C12.2551 1.44671 12.2452 1.42354 12.228 1.40637C12.2109 1.38919 12.1877 1.37935 12.1634 1.37892C12.1408 1.37852 12.1189 1.38631 12.1016 1.40074ZM1.86856 13.3121L12.9559 2.22474L12.9619 2.21829C13.1552 2.01095 13.2603 1.73671 13.2553 1.45336C13.2503 1.17001 13.1355 0.899652 12.9351 0.699258C12.7348 0.498864 12.4644 0.384076 12.181 0.379077C11.8977 0.374077 11.6235 0.479254 11.4161 0.672456L11.4097 0.67847L0.32009 11.768C0.115266 11.9731 0 12.2513 0 12.5412C0 12.8306 0.114675 13.1081 0.318881 13.3131C0.420286 13.4155 0.541066 13.4967 0.674177 13.552C0.806997 13.6071 0.949437 13.6353 1.09323 13.6349" fill="black"/>
<path d="M12.174 13.1349C12.096 13.1353 12.0187 13.1201 11.9466 13.0902C11.8746 13.0603 11.8092 13.0163 11.7544 12.9608L0.671074 1.87743C0.566194 1.76487 0.509097 1.616 0.511811 1.46218C0.514525 1.30836 0.576839 1.1616 0.685624 1.05281C0.794409 0.944026 0.941173 0.881713 1.09499 0.878999C1.24882 0.876285 1.39769 0.933381 1.51024 1.03826L12.5936 12.1216C12.7048 12.2329 12.7672 12.3838 12.7672 12.5412C12.7672 12.6985 12.7048 12.8494 12.5936 12.9608C12.5388 13.0163 12.4734 13.0603 12.4014 13.0902C12.3293 13.1201 12.252 13.1353 12.174 13.1349Z" fill="black"/>
<path fill-rule="evenodd" clip-rule="evenodd" d="M1.16562 1.40074C1.14836 1.38631 1.12643 1.37852 1.10381 1.37892C1.07953 1.37935 1.05635 1.38919 1.03918 1.40637C1.022 1.42354 1.01216 1.44671 1.01173 1.471C1.01133 1.49361 1.01912 1.51555 1.03356 1.53281L12.1102 12.6094C12.1182 12.6175 12.1278 12.624 12.1383 12.6284C12.1489 12.6328 12.1602 12.635 12.1716 12.6349L12.174 13.1349L12.1764 12.6349C12.1878 12.635 12.1991 12.6328 12.2097 12.6284C12.2202 12.624 12.2298 12.6175 12.2378 12.6094L12.2398 12.6074C12.2574 12.5899 12.2672 12.566 12.2672 12.5412C12.2672 12.5163 12.2574 12.4925 12.2398 12.4749L1.16562 1.40074ZM12.9473 13.3141C13.1522 13.109 13.2672 12.831 13.2672 12.5412C13.2672 12.2513 13.1522 11.9733 12.9473 11.7683L1.85756 0.67847L1.8511 0.672456C1.64376 0.479254 1.36953 0.374077 1.08617 0.379077C0.802819 0.384076 0.532465 0.498864 0.332071 0.699258C0.131676 0.899652 0.0168886 1.17001 0.0118892 1.45336C0.00688972 1.73671 0.112067 2.01095 0.305268 2.21829L0.311282 2.22474L11.3987 13.3121C11.3991 13.3126 11.3995 13.313 11.4 13.3135C11.5013 13.4157 11.622 13.4968 11.7549 13.552C11.8878 13.6071 12.0302 13.6353 12.174 13.6349" fill="black"/>
</svg>
