<svg width="20" height="15" viewBox="0 0 20 15" fill="none" xmlns="http://www.w3.org/2000/svg">
<path d="M20 12.4994C20 12.9379 19.8767 13.3443 19.6791 13.702L13.3643 6.63658L19.6106 1.17158C19.8536 1.55718 20 2.01014 20 2.49962V12.4994ZM10 7.91945L18.6916 0.314509C18.335 0.119253 17.9333 -0.000488281 17.5001 -0.000488281H2.49998C2.06619 -0.000488281 1.66443 0.119253 1.3092 0.314509L10 7.91945ZM12.4232 7.45936L10.4113 9.22082C10.2936 9.32333 10.1471 9.37452 10 9.37452C9.85287 9.37452 9.70633 9.32333 9.58865 9.22082L7.57633 7.45928L1.18163 14.615C1.56493 14.8554 2.01413 14.9995 2.49994 14.9995H17.5001C17.9858 14.9995 18.4352 14.8554 18.8184 14.615L12.4232 7.45936ZM0.389439 1.17154C0.146493 1.55714 0 2.0101 0 2.49962V12.4995C0 12.9379 0.122751 13.3444 0.321056 13.702L6.63513 6.63539L0.389439 1.17154Z" fill="white"/>
</svg>
