<svg width="20" height="20" viewBox="0 0 20 20" fill="none" xmlns="http://www.w3.org/2000/svg">
<path d="M18.896 2.26231e-08H1.10303C0.493774 0.000366235 -0.000122048 0.494507 2.26231e-08 1.104V18.897C0.000366235 19.5062 0.494507 20.0001 1.104 20H10.6836V12.2656H8.08594V9.23828H10.6836V7.01038C10.6836 4.42676 12.2609 3.02051 14.5656 3.02051C15.6694 3.02051 16.618 3.10278 16.8945 3.13953V5.83984H15.3053C14.0514 5.83984 13.8086 6.43567 13.8086 7.31018V9.23828H16.8066L16.416 12.2656H13.8086V20H18.896C19.5056 20.0001 19.9999 19.5061 20 18.8965C20 18.8964 20 18.8962 20 18.896V1.10303C19.9998 0.493774 19.5055 -0.000122048 18.896 2.26231e-08Z" fill="white"/>
</svg>
