<svg width="24" height="24" viewBox="0 0 24 24" fill="none" xmlns="http://www.w3.org/2000/svg">
<path d="M11.9992 17.4268C10.7339 17.4252 9.50814 16.9856 8.53014 16.1827C7.55213 15.3799 6.88219 14.2632 6.63408 13.0225H2V18.7427C2 19.6053 2.34267 20.4326 2.95264 21.0426C3.5626 21.6525 4.38989 21.9952 5.25251 21.9952H18.746C19.6086 21.9952 20.4359 21.6525 21.0458 21.0426C21.6558 20.4326 21.9985 19.6053 21.9985 18.7427V13.0225H17.3644C17.1163 14.2632 16.4463 15.3799 15.4683 16.1827C14.4903 16.9856 13.2646 17.4252 11.9992 17.4268Z" fill="black"/>
<path d="M18.746 2H5.25255C4.8243 1.9996 4.4002 2.08386 4.00463 2.24792C3.60906 2.41198 3.24982 2.65261 2.94756 2.95598C2.6453 3.25935 2.40599 3.61947 2.24338 4.01564C2.08077 4.41181 1.99807 4.83621 2.00003 5.26445V10.934H6.62815C6.8651 9.68287 7.53137 8.55374 8.51195 7.74144C9.49254 6.92914 10.7259 6.48464 11.9993 6.48464C13.2726 6.48464 14.506 6.92914 15.4866 7.74144C16.4672 8.55374 17.1334 9.68287 17.3704 10.934H21.9985V5.26445C22.0005 4.83621 21.9178 4.41181 21.7552 4.01564C21.5925 3.61947 21.3532 3.25935 21.051 2.95598C20.7487 2.65261 20.3895 2.41198 19.9939 2.24792C19.5983 2.08386 19.1742 1.9996 18.746 2ZM19.6233 5.48526C19.4814 5.48585 19.3425 5.44428 19.2243 5.36581C19.1061 5.28735 19.0138 5.17553 18.9592 5.04455C18.9047 4.91357 18.8902 4.76933 18.9178 4.63013C18.9453 4.49094 19.0136 4.36306 19.1139 4.26272C19.2142 4.16239 19.3421 4.09412 19.4813 4.06659C19.6205 4.03905 19.7647 4.05348 19.8957 4.10805C20.0267 4.16263 20.1385 4.25488 20.217 4.37311C20.2955 4.49133 20.337 4.6302 20.3364 4.7721C20.3364 4.96124 20.2613 5.14264 20.1276 5.27638C19.9938 5.41012 19.8124 5.48526 19.6233 5.48526Z" fill="black"/>
<path d="M12.0012 15.3384C12.7111 15.3373 13.4028 15.1132 13.9784 14.6977C14.554 14.2822 14.9844 13.6963 15.209 13.0228C15.4336 12.3447 15.4336 11.6122 15.209 10.9341C14.9848 10.2606 14.5543 9.67479 13.9786 9.25964C13.4028 8.8445 12.711 8.62109 12.0012 8.62109C11.2914 8.62109 10.5996 8.8445 10.0239 9.25964C9.44815 9.67479 9.01768 10.2606 8.79349 10.9341C8.56884 11.6122 8.56884 12.3447 8.79349 13.0228C9.01803 13.6963 9.44851 14.2822 10.0241 14.6977C10.5997 15.1132 11.2913 15.3373 12.0012 15.3384Z" fill="black"/>
</svg>
