<svg width="10" height="17" viewBox="0 0 10 17" fill="none" xmlns="http://www.w3.org/2000/svg">
<path d="M9.06559 8.05293C9.05477 8.37975 8.92426 8.6912 8.69886 8.9281L2.29783 15.5959C2.05246 15.8512 1.71571 15.9986 1.36167 16.0056C1.00763 16.0126 0.665314 15.8787 0.41 15.6334C0.154685 15.388 0.00729686 15.0513 0.000264308 14.6972C-0.00676824 14.3432 0.127124 14.0008 0.372494 13.7455L5.88173 8.00293L0.372493 2.26033C0.127124 2.00501 -0.0067688 1.66268 0.000263723 1.30865C0.00729624 0.954609 0.154684 0.617866 0.409999 0.372496C0.665314 0.127127 1.00763 -0.00676889 1.36167 0.000263598C1.71571 0.00729609 2.05246 0.154681 2.29783 0.409996L8.69886 7.07776C8.8223 7.20738 8.91838 7.36052 8.98138 7.52806C9.04439 7.69559 9.07303 7.8741 9.06559 8.05293Z" fill="#38B6FF"/>
</svg>
