<svg width="10" height="17" viewBox="0 0 10 17" fill="none" xmlns="http://www.w3.org/2000/svg">
<g opacity="0.5">
<path d="M0.00081504 8.05293C0.0116383 8.37975 0.142148 8.6912 0.367542 8.9281L6.76858 15.5959C7.01395 15.8512 7.3507 15.9986 7.70474 16.0056C8.05877 16.0126 8.40109 15.8787 8.65641 15.6334C8.91172 15.388 9.05911 15.0513 9.06614 14.6972C9.07317 14.3432 8.93928 14.0008 8.69391 13.7455L3.18467 8.00293L8.69391 2.26033C8.93928 2.00501 9.07318 1.66268 9.06614 1.30865C9.05911 0.954609 8.91172 0.617866 8.65641 0.372496C8.40109 0.127127 8.05877 -0.00676889 7.70474 0.000263598C7.3507 0.00729609 7.01395 0.154681 6.76858 0.409996L0.367542 7.07776C0.244105 7.20738 0.148029 7.36052 0.0850255 7.52806C0.022021 7.69559 -0.00662361 7.8741 0.00081504 8.05293Z" fill="#38B6FF"/>
</g>
</svg>
