<svg width="40" height="40" viewBox="0 0 40 40" fill="none" xmlns="http://www.w3.org/2000/svg">
<circle cx="20" cy="20" r="20" fill="white"/>
<path d="M19.815 10.6519C14.7628 10.6519 10.6523 14.7624 10.6523 19.8145C10.6523 24.8667 14.7628 28.9772 19.815 28.9772C24.8598 28.9772 28.9634 24.8667 28.9634 19.8145C28.9634 14.7624 24.8598 10.6519 19.815 10.6519ZM19.815 27.9907C15.3069 27.9907 11.6389 24.3226 11.6389 19.8145C11.6389 15.3064 15.3069 11.6384 19.815 11.6384C24.3157 11.6384 27.9768 15.3064 27.9768 19.8145C27.9768 24.3226 24.3157 27.9907 19.815 27.9907Z" fill="#222222"/>
<path d="M20.3088 6H19.3223V8.54434H20.3088V6Z" fill="#222222"/>
<path d="M27.4372 11.4958L28.1348 12.1934L29.9248 10.4033L29.2272 9.70573L27.4372 11.4958Z" fill="#222222"/>
<path d="M33.617 19.3213H31.0859V20.3078H33.617V19.3213Z" fill="#222222"/>
<path d="M27.4365 28.1311L29.2266 29.9214L29.9243 29.2238L28.1342 27.4335L27.4365 28.1311Z" fill="#222222"/>
<path d="M20.3088 31.085H19.3223V33.6293H20.3088V31.085Z" fill="#222222"/>
<path d="M9.69374 29.2245L10.3887 29.9248L12.1925 28.1347L11.4976 27.4344L9.69374 29.2245Z" fill="#222222"/>
<path d="M8.54483 19.3213H6V20.3078H8.54483V19.3213Z" fill="#222222"/>
<path d="M12.1925 11.4942L10.3887 9.7041L9.69374 10.4044L11.4976 12.1945L12.1925 11.4942Z" fill="#222222"/>
<circle cx="20" cy="20" r="19.5" fill="#222222" stroke="#38B6FF"/>
<path d="M18.8882 9.66315L19.4789 9.52393L19.063 9.96594C16.2707 12.9331 15.716 17.4175 17.7845 21.0003C19.8531 24.5831 24.014 26.345 27.9798 25.4104L28.5706 25.2712L28.1546 25.7132C27.5123 26.3958 26.7698 26.9846 25.942 27.4625C21.3145 30.1342 15.3973 28.5487 12.7256 23.9211C10.0539 19.2936 11.6394 13.3764 16.2669 10.7047C17.0947 10.2268 17.9758 9.87816 18.8882 9.66315ZM16.4495 11.0209C11.9965 13.5917 10.4709 19.2857 13.0418 23.7386C15.6126 28.1915 21.3066 29.7172 25.7595 27.1463C26.3791 26.7885 26.949 26.3664 27.4624 25.8875C23.5274 26.5549 19.5137 24.7255 17.4683 21.1829C15.423 17.6403 15.8456 13.2496 18.3911 10.1755C17.7196 10.3807 17.0691 10.6631 16.4495 11.0209Z" stroke="white" stroke-width="0.5"/>
</svg>
