<svg width="22" height="16" viewBox="0 0 22 16" fill="none" xmlns="http://www.w3.org/2000/svg">
<path d="M0 0V0.685714V15.3143V16H0.685714H20.3428H21.0286V15.3143V0.685714V0H20.3428H0.685714H0ZM1.37143 1.37143H19.6571V11.9429L16.05 7.99288C15.9105 7.84015 15.6991 7.75614 15.4928 7.77144C15.3233 7.78378 15.1593 7.86184 15.0428 7.98572L11.9428 11.2786L7.37142 6.17145C7.23331 6.01616 7.02166 5.92933 6.81428 5.94288C6.64226 5.95344 6.4753 6.03171 6.35714 6.15717L1.37143 11.5143L1.37143 1.37143ZM12.1143 3.20003C10.9863 3.20003 10.0571 4.12916 10.0571 5.25717C10.0571 6.38517 10.9863 7.31431 12.1143 7.31431C13.2423 7.31431 14.1714 6.38517 14.1714 5.25717C14.1714 4.12916 13.2423 3.20003 12.1143 3.20003ZM12.1143 4.57145C12.5011 4.57145 12.8 4.87033 12.8 5.25717C12.8 5.644 12.5011 5.94288 12.1143 5.94288C11.7274 5.94288 11.4286 5.644 11.4286 5.25717C11.4286 4.87033 11.7274 4.57145 12.1143 4.57145ZM6.84285 7.64286L13.0928 14.6286H1.37143V13.5214L6.84285 7.64286ZM15.5357 9.46431L19.6571 13.9786V14.6286H14.9357L12.8571 12.3071L15.5357 9.46431Z" fill="white"/>
</svg>
