<svg width="37" height="19" viewBox="0 0 37 19" fill="none" xmlns="http://www.w3.org/2000/svg">
<path d="M18.2207 0.5C18.1717 0.5 18.1226 0.5 18.0736 0.5C8.11716 0.549046 1.88828 7.02316 0.220708 9.03406C-0.0735695 9.42643 -0.0735695 9.96594 0.220708 10.3093C2.42779 12.7616 8.60763 18.5 18.0736 18.5C18.0736 18.5 18.0736 18.5 18.1226 18.5C28.03 18.5 34.406 12.2221 36.1226 10.3093C36.4659 9.96594 36.4659 9.37738 36.1226 9.03406C34.406 7.02316 28.079 0.5 18.2207 0.5ZM18.1226 16.5381C10.1771 16.5381 4.73297 12.124 2.3297 9.62261C4.29155 7.56267 9.83379 2.5109 18.1226 2.41281C18.1717 2.41281 18.2207 2.41281 18.2698 2.41281C26.4114 2.41281 31.9046 7.31744 34.0627 9.62261C31.8556 11.8787 26.3133 16.5381 18.1226 16.5381Z" fill="white"/>
<path d="M18.0724 9.52469V4.96338C15.6201 5.01243 13.6582 7.02332 13.6582 9.52469C13.6582 12.026 15.7181 14.086 18.2195 14.086C20.7209 14.086 22.7808 12.026 22.7808 9.52469C22.7808 8.24948 22.2413 7.07237 21.4075 6.28763L18.0724 9.52469Z" fill="white"/>
</svg>
